<svg width="20" height="20" viewBox="0 0 20 20" fill="none" xmlns="http://www.w3.org/2000/svg">
<path d="M10 1.66669C5.4 1.66669 1.66667 5.40002 1.66667 10C1.66667 14.6 5.4 18.3334 10 18.3334C14.6 18.3334 18.3333 14.6 18.3333 10C18.3333 5.40002 14.6 1.66669 10 1.66669ZM13.3583 10.4417L10.8583 12.9417C10.7333 13.0667 10.575 13.125 10.4167 13.125C10.2583 13.125 10.1 13.0667 9.975 12.9417C9.73333 12.7 9.73333 12.3 9.975 12.0584L11.4083 10.625H7.08333C6.74167 10.625 6.45833 10.3417 6.45833 10C6.45833 9.65835 6.74167 9.37502 7.08333 9.37502H11.4083L9.975 7.94169C9.73333 7.70002 9.73333 7.30002 9.975 7.05835C10.2167 6.81669 10.6167 6.81669 10.8583 7.05835L13.3583 9.55835C13.6 9.80002 13.6 10.2 13.3583 10.4417Z" fill="#003066"/>
</svg>
