<svg width="30" height="30" viewBox="0 0 30 30" fill="none" xmlns="http://www.w3.org/2000/svg">
<path d="M15 28.4375C7.5875 28.4375 1.5625 22.4125 1.5625 15C1.5625 7.5875 7.5875 1.5625 15 1.5625C22.4125 1.5625 28.4375 7.5875 28.4375 15C28.4375 22.4125 22.4125 28.4375 15 28.4375ZM15 3.4375C8.625 3.4375 3.4375 8.625 3.4375 15C3.4375 21.375 8.625 26.5625 15 26.5625C21.375 26.5625 26.5625 21.375 26.5625 15C26.5625 8.625 21.375 3.4375 15 3.4375Z" fill="white"/>
<path d="M13.4251 20.35C13.1876 20.35 12.9501 20.2625 12.7626 20.075C12.4001 19.7125 12.4001 19.1125 12.7626 18.75L16.5126 15L12.7626 11.25C12.4001 10.8875 12.4001 10.2875 12.7626 9.92501C13.1251 9.56251 13.7251 9.56251 14.0876 9.92501L18.5001 14.3375C18.8626 14.7 18.8626 15.3 18.5001 15.6625L14.0876 20.075C13.9001 20.2625 13.6626 20.35 13.4251 20.35Z" fill="white"/>
</svg>
