<svg width="68" height="68" viewBox="0 0 68 68" fill="none" xmlns="http://www.w3.org/2000/svg">
<path d="M50.4617 15.555V17.6517L40.4317 11.8434C36.635 9.66169 31.3367 9.66169 27.5683 11.8434L17.5383 17.68V15.555C17.5383 9.18002 21.0233 5.66669 27.3983 5.66669H40.6017C46.9767 5.66669 50.4617 9.18002 50.4617 15.555Z" fill="#1792FF"/>
<path d="M50.5467 22.5817L50.15 22.3833L46.2967 20.1733L38.3067 15.555C35.87 14.1383 32.13 14.1383 29.6934 15.555L21.7034 20.145L17.85 22.4117L17.34 22.6667C12.3817 26.01 12.0417 26.6333 12.0417 31.9883V44.795C12.0417 50.15 12.3817 50.7733 17.4534 54.2017L29.6934 61.2567C30.9117 61.9933 32.4417 62.305 34 62.305C35.53 62.305 37.0884 61.965 38.3067 61.2567L50.66 54.1167C55.6467 50.7733 55.9584 50.1783 55.9584 44.795V31.9883C55.9584 26.6333 55.6184 26.01 50.5467 22.5817ZM41.905 38.25L40.1767 40.375C39.8934 40.6867 39.695 41.2817 39.7234 41.7067L39.8934 44.4267C40.0067 46.0983 38.8167 46.9483 37.2584 46.3533L34.7367 45.3333C34.34 45.1917 33.6884 45.1917 33.2917 45.3333L30.77 46.325C29.2117 46.9483 28.0217 46.07 28.135 44.3983L28.305 41.6783C28.3334 41.2533 28.135 40.6583 27.8517 40.3467L26.095 38.25C25.0184 36.975 25.5 35.5583 27.115 35.1333L29.75 34.4533C30.175 34.34 30.6567 33.9433 30.8834 33.6033L32.3567 31.3367C33.2634 29.92 34.7084 29.92 35.6434 31.3367L37.1167 33.6033C37.3434 33.9717 37.8534 34.34 38.25 34.4533L40.885 35.1333C42.5 35.5583 42.9817 36.975 41.905 38.25Z" fill="#1792FF"/>
</svg>
