<svg width="180" height="180" viewBox="0 0 180 180" fill="none" xmlns="http://www.w3.org/2000/svg">
    <g opacity="0.5">
        <path d="M133.576 41.175V46.725L107.026 31.35C96.9758 25.575 82.9508 25.575 72.9758 31.35L46.4258 46.8V41.175C46.4258 24.3 55.6508 15 72.5258 15H107.476C124.351 15 133.576 24.3 133.576 41.175Z" fill="white"/>
        <path d="M133.8 59.775L132.75 59.2501L122.55 53.4L101.4 41.175C94.95 37.425 85.05 37.425 78.6 41.175L57.45 53.3251L47.25 59.3251L45.9 60C32.775 68.85 31.875 70.5 31.875 84.675V118.575C31.875 132.75 32.775 134.4 46.2 143.475L78.6 162.15C81.825 164.1 85.875 164.925 90 164.925C94.05 164.925 98.175 164.025 101.4 162.15L134.1 143.25C147.3 134.4 148.125 132.825 148.125 118.575V84.675C148.125 70.5 147.225 68.85 133.8 59.775ZM110.925 101.25L106.35 106.875C105.6 107.7 105.075 109.275 105.15 110.4L105.6 117.6C105.9 122.025 102.75 124.275 98.625 122.7L91.95 120C90.9 119.625 89.175 119.625 88.125 120L81.45 122.625C77.325 124.275 74.175 121.95 74.475 117.525L74.925 110.325C75 109.2 74.475 107.625 73.725 106.8L69.075 101.25C66.225 97.875 67.5 94.125 71.775 93L78.75 91.2001C79.875 90.9001 81.15 89.85 81.75 88.95L85.65 82.9501C88.05 79.2001 91.875 79.2001 94.35 82.9501L98.25 88.95C98.85 89.925 100.2 90.9001 101.25 91.2001L108.225 93C112.5 94.125 113.775 97.875 110.925 101.25Z" fill="white"/>
    </g>
</svg>
