<svg width="68" height="68" viewBox="0 0 68 68" fill="none" xmlns="http://www.w3.org/2000/svg">
<path d="M45.8717 5.66663H22.1284C11.815 5.66663 5.66669 11.815 5.66669 22.1283V45.8433C5.66669 56.185 11.815 62.3333 22.1284 62.3333H45.8434C56.1567 62.3333 62.305 56.185 62.305 45.8716V22.1283C62.3334 11.815 56.185 5.66663 45.8717 5.66663ZM32.5834 48.875C32.5834 49.895 31.5634 50.575 30.6284 50.1783C27.2 48.705 22.7234 47.345 19.6067 46.9483L19.0684 46.8916C17.34 46.665 15.9234 45.05 15.9234 43.2933V21.4766C15.9234 19.295 17.68 17.68 19.8334 17.85C23.375 18.1333 28.6167 19.8333 31.9034 21.7033C32.3567 21.9583 32.5834 22.44 32.5834 22.9216V48.875ZM52.0767 43.265C52.0767 45.0216 50.66 46.6366 48.9317 46.8633L48.3367 46.92C45.2484 47.345 40.8 48.6766 37.3717 50.1216C36.4367 50.5183 35.4167 49.8383 35.4167 48.8183V22.8933C35.4167 22.3833 35.6717 21.9016 36.125 21.6466C39.4117 19.805 44.54 18.1616 48.025 17.85H48.1384C50.32 17.85 52.0767 19.6066 52.0767 21.7883V43.265Z" fill="#CC154A"/>
</svg>
