<svg width="30" height="30" viewBox="0 0 30 30" fill="none" xmlns="http://www.w3.org/2000/svg">
<path d="M25.2625 9.77505L15.6375 15.35C15.25 15.575 14.7625 15.575 14.3625 15.35L4.7375 9.77505C4.05 9.37505 3.875 8.43755 4.4 7.85005C4.7625 7.43755 5.175 7.10005 5.6125 6.86255L12.3875 3.11255C13.8375 2.30005 16.1875 2.30005 17.6375 3.11255L24.4125 6.86255C24.85 7.10005 25.2625 7.45005 25.625 7.85005C26.125 8.43755 25.95 9.37505 25.2625 9.77505Z" fill="#B9E2FF"/>
<path d="M14.2875 17.675V26.2C14.2875 27.15 13.325 27.775 12.475 27.3625C9.9 26.1 5.5625 23.7375 5.5625 23.7375C4.0375 22.875 2.7875 20.7 2.7875 18.9125V12.4625C2.7875 11.475 3.825 10.85 4.675 11.3375L13.6625 16.55C14.0375 16.7875 14.2875 17.2125 14.2875 17.675Z" fill="#B9E2FF"/>
<path d="M15.7125 17.675V26.2C15.7125 27.15 16.675 27.775 17.525 27.3625C20.1 26.1 24.4375 23.7375 24.4375 23.7375C25.9625 22.875 27.2125 20.7 27.2125 18.9125V12.4625C27.2125 11.475 26.175 10.85 25.325 11.3375L16.3375 16.55C15.9625 16.7875 15.7125 17.2125 15.7125 17.675Z" fill="#B9E2FF"/>
</svg>
