<svg width="120" height="120" viewBox="0 0 120 120" fill="none" xmlns="http://www.w3.org/2000/svg">
<path d="M55.7027 7.22478C57.6409 3.96615 62.3591 3.96615 64.2973 7.22478L70.3659 17.4275C71.6488 19.5843 74.3317 20.4561 76.6373 19.4652L87.5439 14.7781C91.0274 13.281 94.8444 16.0543 94.4971 19.8298L93.4096 31.651C93.1798 34.15 94.8379 36.4323 97.2856 36.9859L108.864 39.6046C112.562 40.441 114.02 44.9282 111.52 47.7785L103.692 56.7029C102.037 58.5895 102.037 61.4105 103.692 63.2971L111.52 72.2215C114.02 75.0718 112.562 79.559 108.864 80.3954L97.2856 83.0141C94.8379 83.5677 93.1798 85.85 93.4096 88.349L94.4971 100.17C94.8444 103.946 91.0274 106.719 87.5439 105.222L76.6373 100.535C74.3317 99.5439 71.6488 100.416 70.3659 102.573L64.2973 112.775C62.3591 116.034 57.6409 116.034 55.7027 112.775L49.6341 102.573C48.3512 100.416 45.6683 99.5439 43.3627 100.535L32.4561 105.222C28.9726 106.719 25.1556 103.946 25.5029 100.17L26.5904 88.349C26.8202 85.85 25.1621 83.5677 22.7144 83.0141L11.1357 80.3954C7.43763 79.559 5.97965 75.0718 8.47985 72.2215L16.3079 63.2971C17.9628 61.4105 17.9628 58.5895 16.3079 56.7029L8.47985 47.7785C5.97965 44.9282 7.43763 40.441 11.1357 39.6046L22.7144 36.9859C25.1621 36.4323 26.8202 34.15 26.5904 31.651L25.5029 19.8298C25.1556 16.0543 28.9727 13.281 32.4561 14.7781L43.3627 19.4652C45.6683 20.4561 48.3512 19.5843 49.6341 17.4275L55.7027 7.22478Z" fill="#FFF4D1"/>
<path d="M49.496 59C49.8373 59.32 50.104 59.6987 50.296 60.136C50.488 60.5733 50.584 61.0373 50.584 61.528C50.584 62.1467 50.4347 62.7227 50.136 63.256C49.8373 63.7893 49.432 64.2107 48.92 64.52C48.4187 64.8293 47.8693 64.984 47.272 64.984H44.488V65H42.088V53.8H47.016C47.5813 53.8 48.104 53.9493 48.584 54.248C49.064 54.536 49.4427 54.9307 49.72 55.432C50.008 55.9227 50.152 56.4507 50.152 57.016C50.152 57.368 50.0933 57.72 49.976 58.072C49.8693 58.4133 49.7093 58.7227 49.496 59ZM44.488 56.088V58.152L47.016 58.136C47.2507 58.136 47.464 58.04 47.656 57.848C47.848 57.6453 47.944 57.4 47.944 57.112C47.944 56.8133 47.848 56.568 47.656 56.376C47.464 56.184 47.2507 56.088 47.016 56.088H44.488ZM47.272 62.696C47.5493 62.696 47.7893 62.5787 47.992 62.344C48.1947 62.1093 48.296 61.832 48.296 61.512C48.296 61.192 48.1947 60.9147 47.992 60.68C47.7893 60.4453 47.5493 60.328 47.272 60.328H44.488V62.696H47.272ZM56.6525 57H58.9405V65H56.6525V64.456C56.0445 64.968 55.3992 65.224 54.7165 65.224C54.2472 65.224 53.7725 65.1227 53.2925 64.92C52.8125 64.7173 52.4018 64.36 52.0605 63.848C51.7192 63.336 51.5485 62.648 51.5485 61.784V57H53.8365V61.784C53.8365 62.2853 53.9805 62.6533 54.2685 62.888C54.5565 63.112 54.8978 63.224 55.2925 63.224C55.6765 63.224 55.9965 63.0853 56.2525 62.808C56.5192 62.5307 56.6525 62.088 56.6525 61.48V57ZM62.0819 55.912C61.6552 55.912 61.3192 55.8 61.0739 55.576C60.8392 55.3413 60.7219 55.0267 60.7219 54.632C60.7219 54.2267 60.8392 53.9067 61.0739 53.672C61.3192 53.4373 61.6552 53.32 62.0819 53.32C62.4979 53.32 62.8285 53.4373 63.0739 53.672C63.3192 53.9067 63.4419 54.2267 63.4419 54.632C63.4419 55.0267 63.3192 55.3413 63.0739 55.576C62.8285 55.8 62.4979 55.912 62.0819 55.912ZM60.9299 65V57H63.2179V65H60.9299ZM67.389 62.472C67.389 62.6427 67.4263 62.7653 67.501 62.84C67.5863 62.9147 67.725 62.952 67.917 62.952C68.0557 62.952 68.221 62.936 68.413 62.904V65C67.8903 65.0747 67.485 65.112 67.197 65.112C66.5037 65.112 65.981 64.9307 65.629 64.568C65.277 64.1947 65.101 63.544 65.101 62.616V53.8H67.389V62.472ZM75.6501 53.8H77.9221V65H75.6501V64.392C75.2981 64.6587 74.9141 64.8613 74.4981 65C74.0928 65.1493 73.6715 65.224 73.2341 65.224C72.4021 65.224 71.6821 65.0427 71.0741 64.68C70.4768 64.3173 70.0181 63.8213 69.6981 63.192C69.3781 62.552 69.2181 61.8267 69.2181 61.016C69.2181 60.2053 69.3781 59.48 69.6981 58.84C70.0181 58.1893 70.4768 57.6827 71.0741 57.32C71.6821 56.9573 72.4021 56.776 73.2341 56.776C73.6608 56.776 74.0821 56.8507 74.4981 57C74.9141 57.1387 75.2981 57.3413 75.6501 57.608V53.8ZM73.5381 63.048C74.1355 63.048 74.6368 62.856 75.0421 62.472C75.4475 62.088 75.6501 61.592 75.6501 60.984C75.6501 60.3973 75.4475 59.9173 75.0421 59.544C74.6368 59.1707 74.1355 58.984 73.5381 58.984C72.9408 58.984 72.4501 59.1707 72.0661 59.544C71.6821 59.9173 71.4901 60.408 71.4901 61.016C71.4901 61.624 71.6821 62.1147 72.0661 62.488C72.4501 62.8613 72.9408 63.048 73.5381 63.048Z" fill="black"/>
</svg>
