<svg width="33" height="30" viewBox="0 0 33 30" fill="none" xmlns="http://www.w3.org/2000/svg">
    <path d="M20.4325 14.375C20.4325 15.1375 19.8137 15.7625 19.03 15.7625C18.26 15.7625 17.6275 15.1375 17.6275 14.375C17.6275 13.6125 18.2462 12.9875 19.03 12.9875C19.8137 12.9875 20.4325 13.6125 20.4325 14.375ZM14.0112 12.9875C13.2275 12.9875 12.6087 13.6125 12.6087 14.375C12.6087 15.1375 13.2412 15.7625 14.0112 15.7625C14.795 15.7625 15.4137 15.1375 15.4137 14.375C15.4275 13.6125 14.795 12.9875 14.0112 12.9875ZM28.5312 5.075V27.5C25.0672 24.7171 26.1751 25.6383 22.1512 22.2375L22.88 24.55H7.2875C5.73375 24.55 4.46875 23.4 4.46875 21.975V5.075C4.46875 3.65 5.73375 2.5 7.2875 2.5H25.7125C27.2662 2.5 28.5312 3.65 28.5312 5.075ZM24.6125 16.925C24.6125 12.9 22.6325 9.6375 22.6325 9.6375C20.6525 8.2875 18.7687 8.325 18.7687 8.325L18.5762 8.525C20.9137 9.175 22 10.1125 22 10.1125C18.7338 8.48511 14.897 8.48481 11.7287 9.75C11.22 9.9625 10.9175 10.1125 10.9175 10.1125C10.9175 10.1125 12.0587 9.125 14.5337 8.475L14.3962 8.325C14.3962 8.325 12.5125 8.2875 10.5325 9.6375C10.5325 9.6375 8.5525 12.9 8.5525 16.925C8.5525 16.925 9.7075 18.7375 12.7462 18.825C12.7462 18.825 13.255 18.2625 13.6675 17.7875C11.9212 17.3125 11.2612 16.3125 11.2612 16.3125C11.4635 16.4412 11.7971 16.6081 11.825 16.625C14.1458 17.8065 17.4425 18.1937 20.405 17.0625C20.8862 16.9 21.4225 16.6625 21.9862 16.325C21.9862 16.325 21.2987 17.35 19.4975 17.8125C19.91 18.2875 20.405 18.825 20.405 18.825C23.4437 18.7375 24.6125 16.925 24.6125 16.925Z" fill="#37324A"/>
</svg>
