<svg width="16" height="16" viewBox="0 0 16 16" fill="none" xmlns="http://www.w3.org/2000/svg">
    <path d="M14.2 8.15332H11.88C11.2267 8.15332 10.6467 8.51332 10.3533 9.09999L9.79334 10.2067C9.66001 10.4733 9.39334 10.64 9.10001 10.64H6.91334C6.70668 10.64 6.41334 10.5933 6.22001 10.2067L5.66001 9.10665C5.36668 8.52665 4.78001 8.15999 4.13334 8.15999H1.80001C1.54001 8.15999 1.33334 8.36665 1.33334 8.62665V10.8C1.33334 13.22 2.78668 14.6667 5.21334 14.6667H10.8C13.0867 14.6667 14.4933 13.4133 14.6667 11.1867V8.61999C14.6667 8.36665 14.46 8.15332 14.2 8.15332Z" fill="#676376"/>
    <path d="M14.6667 5.20634V7.23301C14.52 7.17968 14.36 7.15301 14.2 7.15301H11.88C10.8467 7.15301 9.92001 7.72634 9.46001 8.64634L8.96001 9.63301H7.05334L6.55334 8.65301C6.09334 7.72634 5.16668 7.15301 4.13334 7.15301H1.80001C1.64001 7.15301 1.48001 7.17968 1.33334 7.23301V5.20634C1.33334 2.77967 2.78001 1.33301 5.20668 1.33301H10.7933C13.22 1.33301 14.6667 2.77967 14.6667 5.20634Z" fill="#676376"/>
</svg>
