<svg width="28" height="29" viewBox="0 0 28 29" fill="none" xmlns="http://www.w3.org/2000/svg">
<path d="M27.0226 14.3237C27.0226 20.7781 22.6582 26.1564 16.8409 27.533V19.2362H19.307H19.9727L20.0707 18.5777L20.6868 14.4373L20.8186 13.5516H19.9232H16.8409V11.638C16.8409 11.1782 16.9518 10.8207 17.1454 10.5899C17.3183 10.3838 17.6459 10.172 18.3337 10.172H20.086H20.8581V9.3999V5.87494V5.22679L20.2197 5.11453L20.086 5.87494C20.2197 5.11453 20.2197 5.11452 20.2196 5.1145L20.2194 5.11447L20.219 5.11439L20.2176 5.11415L20.2132 5.11338L20.1975 5.11069L20.1401 5.10109C20.0907 5.09296 20.0194 5.08152 19.9295 5.06788C19.7499 5.04063 19.4952 5.00449 19.1918 4.96839C18.5885 4.89659 17.7775 4.8231 16.9751 4.8231C15.2252 4.8231 13.6959 5.37332 12.6057 6.498C11.5176 7.62053 10.9538 9.22542 10.9538 11.168V13.5516H8.19727H7.42519V14.3237V18.4641V19.2362H8.19727H10.9538V27.533C5.13652 26.1564 0.772075 20.7781 0.772075 14.3237C0.772075 6.81716 6.67028 0.772075 13.8974 0.772075C21.1244 0.772075 27.0226 6.81716 27.0226 14.3237Z" fill="#424141" stroke="#424141" stroke-width="1.54415"/>
</svg>
