<svg width="33" height="34" viewBox="0 0 33 34" fill="none" xmlns="http://www.w3.org/2000/svg">
    <path d="M11.9481 25.4312C11.9481 25.5455 11.8206 25.6369 11.6598 25.6369C11.4768 25.654 11.3493 25.5626 11.3493 25.4312C11.3493 25.317 11.4768 25.2256 11.6376 25.2256C11.8039 25.2084 11.9481 25.2998 11.9481 25.4312ZM10.2238 25.1741C10.185 25.2884 10.2959 25.4198 10.4622 25.4541C10.6064 25.5112 10.7727 25.4541 10.8059 25.3398C10.8392 25.2256 10.7339 25.0942 10.5675 25.0428C10.4234 25.0028 10.2626 25.0599 10.2238 25.1741ZM12.6744 25.077C12.5136 25.117 12.4027 25.2256 12.4194 25.3569C12.436 25.4712 12.5801 25.5455 12.7465 25.5055C12.9073 25.4655 13.0181 25.3569 13.0015 25.2427C12.9849 25.1342 12.8352 25.0599 12.6744 25.077ZM16.3226 3.18726C8.63256 3.18726 2.75 9.20238 2.75 17.1254C2.75 23.4604 6.61996 28.8815 12.1477 30.7894C12.8574 30.9208 13.1069 30.4695 13.1069 30.0982C13.1069 29.744 13.0902 27.7904 13.0902 26.5908C13.0902 26.5908 9.20917 27.4477 8.39415 24.8885C8.39415 24.8885 7.7621 23.2262 6.85282 22.7978C6.85282 22.7978 5.58317 21.901 6.94153 21.9181C6.94153 21.9181 8.32208 22.0323 9.08165 23.3919C10.2959 25.5969 12.3306 24.9628 13.1235 24.5858C13.251 23.6718 13.6114 23.0377 14.0106 22.6607C10.9113 22.3065 7.78428 21.8438 7.78428 16.3485C7.78428 14.7776 8.20565 13.9893 9.09274 12.984C8.94859 12.6127 8.47732 11.0817 9.2369 9.10527C10.3957 8.73396 13.0625 10.6476 13.0625 10.6476C14.1714 10.3277 15.3634 10.1621 16.5444 10.1621C17.7253 10.1621 18.9173 10.3277 20.0262 10.6476C20.0262 10.6476 22.693 8.72825 23.8518 9.10527C24.6114 11.0875 24.1401 12.6127 23.996 12.984C24.8831 13.9951 25.4264 14.7834 25.4264 16.3485C25.4264 21.861 22.1608 22.3008 19.0615 22.6607C19.5716 23.112 20.004 23.9688 20.004 25.3112C20.004 27.2363 19.9874 29.6184 19.9874 30.0868C19.9874 30.4581 20.2424 30.9094 20.9466 30.778C26.4909 28.8815 30.25 23.4604 30.25 17.1254C30.25 9.20238 24.0126 3.18726 16.3226 3.18726ZM8.13911 22.8892C8.06704 22.9463 8.08367 23.0777 8.17792 23.1862C8.26663 23.2776 8.39415 23.3176 8.46623 23.2434C8.53831 23.1862 8.52167 23.0549 8.42742 22.9463C8.33871 22.8549 8.21119 22.8149 8.13911 22.8892ZM7.54032 22.4265C7.50151 22.5008 7.55696 22.5922 7.66784 22.6493C7.75655 22.7064 7.86744 22.6893 7.90625 22.6093C7.94506 22.535 7.88962 22.4436 7.77873 22.3865C7.66784 22.3522 7.57913 22.3694 7.54032 22.4265ZM9.33669 24.4601C9.24798 24.5344 9.28125 24.7057 9.40877 24.8143C9.53629 24.9457 9.69708 24.9628 9.76915 24.8714C9.84123 24.7971 9.80796 24.6258 9.69708 24.5172C9.5751 24.3858 9.40877 24.3687 9.33669 24.4601ZM8.70464 23.6204C8.61593 23.6775 8.61593 23.826 8.70464 23.9574C8.79335 24.0888 8.94305 24.1459 9.01512 24.0888C9.10383 24.0145 9.10383 23.866 9.01512 23.7346C8.9375 23.6032 8.79335 23.5461 8.70464 23.6204Z" fill="#37324A"/>
</svg>
