<svg width="68" height="68" viewBox="0 0 68 68" fill="none" xmlns="http://www.w3.org/2000/svg">
<path d="M31.1667 56.3833V11.6166C31.1667 7.36663 29.3533 5.66663 24.8483 5.66663H13.4017C8.89666 5.66663 7.08333 7.36663 7.08333 11.6166V56.3833C7.08333 60.6333 8.89666 62.3333 13.4017 62.3333H24.8483C29.3533 62.3333 31.1667 60.6333 31.1667 56.3833Z" fill="#006655"/>
<path d="M60.9167 30.8833V11.6166C60.9167 7.36663 59.1033 5.66663 54.5983 5.66663H43.1517C38.6467 5.66663 36.8333 7.36663 36.8333 11.6166V30.8833C36.8333 35.1333 38.6467 36.8333 43.1517 36.8333H54.5983C59.1033 36.8333 60.9167 35.1333 60.9167 30.8833Z" fill="#006655"/>
<path d="M60.9167 56.3833V48.45C60.9167 44.2 59.1033 42.5 54.5983 42.5H43.1517C38.6467 42.5 36.8333 44.2 36.8333 48.45V56.3833C36.8333 60.6333 38.6467 62.3333 43.1517 62.3333H54.5983C59.1033 62.3333 60.9167 60.6333 60.9167 56.3833Z" fill="#006655"/>
</svg>
