<svg width="22" height="19" viewBox="0 0 22 19" fill="none" xmlns="http://www.w3.org/2000/svg">
<path d="M1.33333 0C0.596954 0 0 0.596954 0 1.33333C0 2.06971 0.596954 2.66667 1.33333 2.66667H20C20.7364 2.66667 21.3333 2.06971 21.3333 1.33333C21.3333 0.596954 20.7364 0 20 0H1.33333Z" fill="#141416"/>
<path d="M1.33333 8C0.596954 8 0 8.59695 0 9.33333C0 10.0697 0.596954 10.6667 1.33333 10.6667H20C20.7364 10.6667 21.3333 10.0697 21.3333 9.33333C21.3333 8.59695 20.7364 8 20 8H1.33333Z" fill="#141416"/>
<path d="M1.33333 16C0.596954 16 0 16.597 0 17.3333C0 18.0697 0.596954 18.6667 1.33333 18.6667H20C20.7364 18.6667 21.3333 18.0697 21.3333 17.3333C21.3333 16.597 20.7364 16 20 16H1.33333Z" fill="#141416"/>
</svg>
