<svg width="40" height="40" viewBox="0 0 40 40" fill="none" xmlns="http://www.w3.org/2000/svg">
    <rect width="40" height="40" rx="10" fill="#CC154A"/>
    <path d="M17.0746 7H12C9.23858 7 7 9.23858 7 12V16.3284" stroke="white" stroke-width="2"/>
    <path d="M17.0746 32H12C9.23858 32 7 29.7614 7 27V22.6716" stroke="white" stroke-width="2"/>
    <path d="M22.8582 7H27.9329C30.6943 7 32.9329 9.23858 32.9329 12V16.3284" stroke="white" stroke-width="2"/>
    <path d="M22.8581 32H27.9327C30.6942 32 32.9327 29.7614 32.9327 27V22.6716" stroke="white" stroke-width="2"/>
    <path opacity="0.3" d="M20.2069 20.3798C18.7472 20.3798 17.5638 19.1965 17.5638 17.7368C17.5638 16.2771 18.7472 15.0938 20.2069 15.0938C21.6666 15.0938 22.8499 16.2771 22.8499 17.7368C22.8499 19.1965 21.6666 20.3798 20.2069 20.3798Z" fill="white"/>
    <path d="M14.2605 26.4581C14.5166 23.3045 17.0762 21.7012 20.1959 21.7012C23.3595 21.7012 25.9587 23.2164 26.1524 26.4586C26.1601 26.5878 26.1524 26.9872 25.656 26.9872C23.2075 26.9872 19.5691 26.9872 14.7408 26.9872C14.5751 26.9872 14.2466 26.6299 14.2605 26.4581Z" fill="white"/>
    <circle cx="20.0556" cy="16.1669" r="3.05556" fill="white"/>
</svg>
