<svg width="33" height="33" viewBox="0 0 33 33" fill="none" xmlns="http://www.w3.org/2000/svg">
    <path d="M16.5 13.2258C15.8525 13.226 15.2196 13.4183 14.6813 13.7782C14.143 14.1381 13.7235 14.6496 13.4759 15.2479C13.2283 15.8462 13.1636 16.5045 13.2901 17.1395C13.4165 17.7746 13.7285 18.3579 14.1864 18.8157C14.6444 19.2734 15.2278 19.5852 15.8629 19.7114C16.498 19.8376 17.1563 19.7727 17.7545 19.5249C18.3527 19.277 18.864 18.8573 19.2237 18.3189C19.5834 17.7805 19.7754 17.1475 19.7754 16.5C19.7748 15.6316 19.4295 14.799 18.8153 14.1851C18.2011 13.5711 17.3684 13.2261 16.5 13.2258ZM24.1552 10.709C23.9885 10.2866 23.7368 9.90296 23.4157 9.58185C23.0946 9.26074 22.7109 9.00904 22.2885 8.84236C20.9994 8.33348 17.9302 8.44766 16.5 8.44766C15.0698 8.44766 12.0036 8.32919 10.7109 8.84236C10.2885 9.00904 9.9048 9.26074 9.58369 9.58185C9.26258 9.90296 9.01088 10.2866 8.8442 10.709C8.33594 11.9981 8.4495 15.0704 8.4495 16.4994C8.4495 17.9284 8.33594 20.997 8.84665 22.2903C9.01334 22.7128 9.26504 23.0964 9.58615 23.4175C9.90726 23.7386 10.2909 23.9903 10.7133 24.157C12.0024 24.6659 15.0716 24.5517 16.5025 24.5517C17.9333 24.5517 20.9982 24.6702 22.291 24.157C22.7134 23.9903 23.097 23.7386 23.4181 23.4175C23.7393 23.0964 23.991 22.7128 24.1576 22.2903C24.6702 21.0013 24.5523 17.929 24.5523 16.5C24.5523 15.071 24.6702 12.003 24.1576 10.7097L24.1552 10.709ZM16.5 21.5335C15.5045 21.5335 14.5313 21.2383 13.7035 20.6852C12.8758 20.1321 12.2306 19.346 11.8497 18.4262C11.4687 17.5065 11.369 16.4944 11.5632 15.518C11.7575 14.5416 12.2368 13.6447 12.9408 12.9408C13.6447 12.2368 14.5416 11.7575 15.518 11.5632C16.4944 11.369 17.5065 11.4687 18.4262 11.8497C19.346 12.2306 20.1321 12.8758 20.6852 13.7035C21.2383 14.5313 21.5335 15.5045 21.5335 16.5C21.5343 17.1612 21.4046 17.8161 21.152 18.4272C20.8993 19.0382 20.5286 19.5935 20.061 20.061C19.5934 20.5286 19.0382 20.8993 18.4272 21.152C17.8161 21.4046 17.1612 21.5343 16.5 21.5335ZM21.741 12.4302C21.5086 12.4304 21.2813 12.3616 21.0881 12.2325C20.8948 12.1035 20.7441 11.9201 20.6551 11.7054C20.566 11.4907 20.5427 11.2545 20.588 11.0265C20.6332 10.7986 20.7451 10.5892 20.9094 10.4248C21.0736 10.2604 21.283 10.1485 21.5109 10.1031C21.7388 10.0577 21.9751 10.0809 22.1898 10.1698C22.4045 10.2588 22.5881 10.4093 22.7172 10.6026C22.8463 10.7958 22.9152 11.023 22.9152 11.2554C22.9159 11.4097 22.8861 11.5626 22.8275 11.7054C22.7689 11.8482 22.6827 11.978 22.5738 12.0874C22.4649 12.1967 22.3355 12.2835 22.193 12.3428C22.0505 12.4021 21.8977 12.4326 21.7434 12.4327L21.741 12.4302ZM27.3036 2.75H5.69643C4.91499 2.75 4.16555 3.06043 3.61299 3.61299C3.06043 4.16555 2.75 4.91499 2.75 5.69643L2.75 27.3036C2.75 28.085 3.06043 28.8344 3.61299 29.387C4.16555 29.9396 4.91499 30.25 5.69643 30.25H27.3036C28.085 30.25 28.8344 29.9396 29.387 29.387C29.9396 28.8344 30.25 28.085 30.25 27.3036V5.69643C30.25 4.91499 29.9396 4.16555 29.387 3.61299C28.8344 3.06043 28.085 2.75 27.3036 2.75ZM26.2527 20.5513C26.1735 22.1246 25.8144 23.5186 24.6659 24.6641C23.5174 25.8095 22.1246 26.176 20.5532 26.2508C18.932 26.3423 14.0717 26.3423 12.4505 26.2508C10.8772 26.1717 9.48811 25.8119 8.33778 24.6641C7.18744 23.5162 6.82589 22.1215 6.751 20.5513C6.65954 18.9296 6.65954 14.0686 6.751 12.4487C6.83019 10.8754 7.18499 9.48136 8.33778 8.33594C9.49057 7.19051 10.8834 6.82835 12.4505 6.75346C14.0717 6.662 18.932 6.662 20.5532 6.75346C22.1265 6.83265 23.5199 7.19236 24.6659 8.34023C25.8119 9.48811 26.1778 10.8828 26.2527 12.456C26.3441 14.0717 26.3441 18.9283 26.2527 20.5513Z" fill="#37324A"/>
</svg>
