<svg width="31" height="30" viewBox="0 0 31 30" fill="none" xmlns="http://www.w3.org/2000/svg">
<path d="M29.5052 13.9571C29.5052 1.77338 28.5531 1.29199 14.5358 1.29199C1.73514 1.29199 2.5285 4.34079 1.73511 13.9571C1.73507 27.608 2.5285 29.0521 14.5358 29.0521C28.5531 29.0521 29.5052 29.9776 29.5052 13.9571Z" fill="#424141"/>
<path d="M1.73511 13.9571L0.965646 13.8936L0.963032 13.9253L0.963032 13.9571L1.73511 13.9571ZM14.5358 2.06407C18.0497 2.06407 20.6919 2.09507 22.7006 2.32466C24.717 2.55513 25.966 2.97446 26.7854 3.65101C27.5814 4.30827 28.0846 5.30426 28.3769 6.9715C28.6718 8.65379 28.7331 10.9028 28.7331 13.9571H30.2773C30.2773 10.9196 30.2195 8.53951 29.8979 6.70486C29.5736 4.85517 28.9627 3.44635 27.7686 2.4603C26.5977 1.49354 24.9805 1.03104 22.876 0.790499C20.7638 0.54909 18.0305 0.519917 14.5358 0.519917V2.06407ZM28.7331 13.9571C28.7331 17.9713 28.6723 20.8625 28.373 22.9656C28.0731 25.0727 27.5524 26.2337 26.7637 26.9356C25.9661 27.6454 24.7514 28.0161 22.7272 28.1768C20.7072 28.3371 18.0721 28.2801 14.5358 28.2801V29.8242C18.0081 29.8242 20.7485 29.8828 22.8494 29.7161C24.9461 29.5496 26.5976 29.1504 27.7903 28.0891C28.9918 27.0198 29.5851 25.4082 29.9018 23.1831C30.219 20.9539 30.2773 17.9532 30.2773 13.9571H28.7331ZM14.5358 28.2801C11.5327 28.2801 9.30048 28.1882 7.61991 27.8558C5.95618 27.5267 4.92425 26.9791 4.22915 26.1335C3.51721 25.2673 3.06798 23.9806 2.81255 21.977C2.55766 19.9777 2.50717 17.3752 2.50718 13.9571L0.963032 13.9571C0.963022 17.3644 1.01169 20.0615 1.2808 22.1723C1.54934 24.2788 2.04893 25.9127 3.03624 27.1139C4.04041 28.3357 5.4582 29.0023 7.32029 29.3706C9.16554 29.7356 11.5352 29.8242 14.5358 29.8242V28.2801ZM2.50457 14.0206C2.70613 11.5775 2.80124 9.63895 3.03394 8.03195C3.2653 6.43421 3.61694 5.31072 4.24621 4.4872C4.85906 3.68517 5.80788 3.07569 7.43487 2.66749C9.07896 2.255 11.353 2.06407 14.5358 2.06407V0.519917C11.3182 0.519917 8.89122 0.710089 7.0591 1.16976C5.20986 1.63372 3.90731 2.38746 3.01925 3.54966C2.1476 4.69039 1.74878 6.13216 1.50573 7.81066C1.26402 9.47991 1.16078 11.5286 0.965646 13.8936L2.50457 14.0206Z" fill="#424141"/>
<path d="M27.1261 5.69796C27.1261 4.45114 26.4796 3.67188 24.7825 3.67188C23.6473 3.75313 23.0046 4.21736 22.7622 5.69796C22.7622 7.17855 23.5534 7.94822 24.7825 8.03574C26.4796 8.03574 27.1261 7.10063 27.1261 5.69796Z" fill="white"/>
<path d="M23.9584 14.1571C23.9584 9.16977 21.49 6.05273 15.0103 6.05273C10.6759 6.37777 8.22204 8.23466 7.29639 14.1571C7.2964 20.0795 10.3174 23.1581 15.0103 23.5082C21.49 23.5082 23.9584 19.7677 23.9584 14.1571Z" fill="#424141"/>
<path d="M15.0103 6.05273V5.28066H14.9814L14.9526 5.28282L15.0103 6.05273ZM15.0103 23.5082L14.9529 24.2781L14.9815 24.2803H15.0103V23.5082ZM7.29639 14.1571L6.53357 14.0378L6.52431 14.0971L6.52431 14.1571L7.29639 14.1571ZM15.0103 6.82481C18.1388 6.82481 20.1444 7.57768 21.373 8.78529C22.5988 9.99011 23.1864 11.7808 23.1864 14.1571H24.7305C24.7305 11.5461 24.0838 9.28456 22.4555 7.68404C20.8299 6.08631 18.3615 5.28066 15.0103 5.28066V6.82481ZM23.1864 14.1571C23.1864 16.8659 22.5883 18.9889 21.3323 20.4292C20.0939 21.8494 18.1 22.7361 15.0103 22.7361V24.2803C18.4003 24.2803 20.8805 23.2968 22.4961 21.4441C24.0943 19.6114 24.7305 17.0589 24.7305 14.1571H23.1864ZM15.0677 22.7383C12.8806 22.5751 11.1595 21.7858 9.97785 20.4176C8.79041 19.0427 8.06847 16.9912 8.06846 14.1571L6.52431 14.1571C6.52432 17.2453 7.3129 19.6944 8.8092 21.4269C10.3113 23.1661 12.4472 24.0912 14.9529 24.2781L15.0677 22.7383ZM8.0592 14.2763C8.51038 11.3896 9.31485 9.63557 10.4154 8.5574C11.504 7.49087 12.9929 6.97826 15.068 6.82265L14.9526 5.28282C12.6933 5.45224 10.7881 6.0306 9.33476 7.45437C7.89334 8.86651 7.00805 11.0021 6.53357 14.0378L8.0592 14.2763Z" fill="white"/>
<path d="M20.9752 14.5821C20.9752 11.4084 19.3884 9.4248 15.2229 9.4248C12.4365 9.63165 10.859 10.8133 10.2639 14.5821C10.2639 18.3509 12.206 20.31 15.2229 20.5328C19.3884 20.5328 20.9752 18.1525 20.9752 14.5821Z" fill="white"/>
<path d="M15.2229 9.4248V8.65273H15.1942L15.1657 8.65485L15.2229 9.4248ZM15.2229 20.5328L15.166 21.3028L15.1944 21.3049H15.2229V20.5328ZM10.2639 14.5821L9.50129 14.4617L9.49184 14.5215L9.49184 14.5821L10.2639 14.5821ZM15.2229 10.1969C17.1962 10.1969 18.4039 10.6673 19.1227 11.3667C19.8371 12.0618 20.2032 13.1146 20.2032 14.5821H21.7473C21.7473 12.8759 21.3199 11.3501 20.1995 10.2599C19.0835 9.17406 17.4151 8.65273 15.2229 8.65273V10.1969ZM20.2032 14.5821C20.2032 16.2692 19.8263 17.5409 19.0818 18.386C18.3536 19.2126 17.1579 19.7608 15.2229 19.7608V21.3049C17.4533 21.3049 19.1338 20.663 20.2404 19.4067C21.3308 18.1691 21.7473 16.4654 21.7473 14.5821H20.2032ZM15.2797 19.7629C13.9283 19.6631 12.8955 19.1839 12.1939 18.3796C11.4872 17.5697 11.036 16.3377 11.036 14.5821L9.49184 14.5821C9.49184 16.5953 10.0117 18.2273 11.0303 19.3948C12.0539 20.568 13.5006 21.1798 15.166 21.3028L15.2797 19.7629ZM11.0265 14.7025C11.3121 12.894 11.8139 11.8477 12.4591 11.222C13.0937 10.6066 13.9773 10.2915 15.28 10.1948L15.1657 8.65485C13.682 8.76499 12.3837 9.14407 11.3841 10.1135C10.3953 11.0725 9.8108 12.5014 9.50129 14.4617L11.0265 14.7025Z" fill="#424141"/>
</svg>
