<svg width="120" height="120" viewBox="0 0 120 120" fill="none" xmlns="http://www.w3.org/2000/svg">
<path d="M55.7027 7.22478C57.6409 3.96615 62.3591 3.96615 64.2973 7.22478L70.3659 17.4275C71.6488 19.5843 74.3317 20.4561 76.6373 19.4652L87.5439 14.7781C91.0274 13.281 94.8444 16.0543 94.4971 19.8298L93.4096 31.651C93.1798 34.15 94.8379 36.4323 97.2856 36.9859L108.864 39.6046C112.562 40.441 114.02 44.9282 111.52 47.7785L103.692 56.7029C102.037 58.5895 102.037 61.4105 103.692 63.2971L111.52 72.2215C114.02 75.0718 112.562 79.559 108.864 80.3954L97.2856 83.0141C94.8379 83.5677 93.1798 85.85 93.4096 88.349L94.4971 100.17C94.8444 103.946 91.0274 106.719 87.5439 105.222L76.6373 100.535C74.3317 99.5439 71.6488 100.416 70.3659 102.573L64.2973 112.775C62.3591 116.034 57.6409 116.034 55.7027 112.775L49.6341 102.573C48.3512 100.416 45.6683 99.5439 43.3627 100.535L32.4561 105.222C28.9726 106.719 25.1556 103.946 25.5029 100.17L26.5904 88.349C26.8202 85.85 25.1621 83.5677 22.7144 83.0141L11.1357 80.3954C7.43763 79.559 5.97965 75.0718 8.47985 72.2215L16.3079 63.2971C17.9628 61.4105 17.9628 58.5895 16.3079 56.7029L8.47985 47.7785C5.97965 44.9282 7.43763 40.441 11.1357 39.6046L22.7144 36.9859C25.1621 36.4323 26.8202 34.15 26.5904 31.651L25.5029 19.8298C25.1556 16.0543 28.9727 13.281 32.4561 14.7781L43.3627 19.4652C45.6683 20.4561 48.3512 19.5843 49.6341 17.4275L55.7027 7.22478Z" fill="#9665FD"/>
<path d="M45.488 53.8V62.712H50.032V65H43.088V53.8H45.488ZM54.7055 56.792C55.4842 56.792 56.1775 56.9787 56.7855 57.352C57.4042 57.7253 57.8842 58.232 58.2255 58.872C58.5668 59.512 58.7375 60.2213 58.7375 61C58.7375 61.2987 58.7162 61.5707 58.6735 61.816H52.7535C52.9562 62.3067 53.2282 62.6747 53.5695 62.92C53.9108 63.1547 54.3535 63.272 54.8975 63.272C55.2282 63.272 55.5482 63.2027 55.8575 63.064C56.1775 62.9253 56.4282 62.7387 56.6095 62.504L58.3375 63.528C57.9642 64.072 57.4788 64.488 56.8815 64.776C56.2948 65.064 55.6175 65.208 54.8495 65.208C53.9855 65.208 53.2228 65.0267 52.5615 64.664C51.9002 64.2907 51.3882 63.784 51.0255 63.144C50.6628 62.504 50.4815 61.7893 50.4815 61C50.4815 60.2107 50.6575 59.496 51.0095 58.856C51.3722 58.216 51.8735 57.7147 52.5135 57.352C53.1535 56.9787 53.8842 56.792 54.7055 56.792ZM56.5935 60.04C56.5188 59.6347 56.3055 59.32 55.9535 59.096C55.6122 58.872 55.1908 58.76 54.6895 58.76C54.1668 58.76 53.7135 58.888 53.3295 59.144C52.9455 59.3893 52.7428 59.688 52.7215 60.04H56.5935ZM66.0411 57H68.3131V65H66.0411V64.392C65.6891 64.6587 65.2998 64.8613 64.8731 65C64.4571 65.1493 64.0358 65.224 63.6091 65.224C62.7771 65.224 62.0571 65.0427 61.4491 64.68C60.8518 64.3173 60.3931 63.8213 60.0731 63.192C59.7531 62.552 59.5931 61.8267 59.5931 61.016C59.5931 60.2053 59.7531 59.48 60.0731 58.84C60.3931 58.1893 60.8518 57.6827 61.4491 57.32C62.0571 56.9573 62.7771 56.776 63.6091 56.776C64.0465 56.776 64.4731 56.8507 64.8891 57C65.3051 57.1493 65.6891 57.3573 66.0411 57.624V57ZM63.9131 63.048C64.5105 63.048 65.0118 62.856 65.4171 62.472C65.8225 62.088 66.0251 61.592 66.0251 60.984C66.0251 60.3973 65.8225 59.9173 65.4171 59.544C65.0118 59.1707 64.5105 58.984 63.9131 58.984C63.3158 58.984 62.8251 59.1707 62.4411 59.544C62.0571 59.9173 61.8651 60.408 61.8651 61.016C61.8651 61.624 62.0571 62.1147 62.4411 62.488C62.8251 62.8613 63.3158 63.048 63.9131 63.048ZM75.2969 56.84L75.1369 59C75.0622 58.968 74.9395 58.952 74.7689 58.952C74.1182 58.952 73.5849 59.1387 73.1689 59.512C72.7635 59.8747 72.5609 60.3547 72.5609 60.952V65H70.2729V57H72.5609V58.296C72.7529 57.88 73.0622 57.5333 73.4889 57.256C73.9155 56.9787 74.4329 56.84 75.0409 56.84H75.2969ZM80.7625 56.776C81.2318 56.776 81.7065 56.8773 82.1865 57.08C82.6665 57.2827 83.0772 57.64 83.4185 58.152C83.7598 58.664 83.9305 59.352 83.9305 60.216V65H81.6425V60.216C81.6425 59.704 81.4985 59.336 81.2105 59.112C80.9332 58.888 80.5972 58.776 80.2025 58.776C79.8078 58.776 79.4772 58.9147 79.2105 59.192C78.9545 59.4693 78.8265 59.912 78.8265 60.52V65H76.5385V57H78.8265V57.544C79.4345 57.032 80.0798 56.776 80.7625 56.776Z" fill="white"/>
</svg>
