<svg width="25" height="24" viewBox="0 0 25 24" fill="none" xmlns="http://www.w3.org/2000/svg">
<path d="M19.8647 14.24C19.5627 14.53 19.0835 14.53 18.7918 14.24C18.4897 13.95 18.4897 13.49 18.7918 13.21C20.8752 11.21 20.8752 7.95998 18.7918 5.96998C16.7085 3.97998 13.3231 3.96998 11.2502 5.96998C9.17725 7.96998 9.16683 11.22 11.2502 13.21C11.5522 13.5 11.5522 13.96 11.2502 14.24C10.9481 14.53 10.4689 14.53 10.1772 14.24C7.50016 11.67 7.50016 7.48998 10.1772 4.92998C12.8543 2.36998 17.2085 2.35998 19.8752 4.92998C22.5418 7.49998 22.5418 11.67 19.8647 14.24Z" fill="#054D99" stroke="#054D99"/>
<path d="M5.13558 9.75998C5.43766 9.46998 5.91683 9.46998 6.2085 9.75998C6.51058 10.05 6.51058 10.51 6.2085 10.79C4.12516 12.79 4.12516 16.04 6.2085 18.03C8.29183 20.02 11.6772 20.03 13.7502 18.03C15.8231 16.03 15.8335 12.78 13.7502 10.79C13.4481 10.5 13.4481 10.04 13.7502 9.75998C14.0522 9.46998 14.5314 9.46998 14.8231 9.75998C17.5002 12.33 17.5002 16.51 14.8231 19.07C12.146 21.63 7.79183 21.64 5.12516 19.07C2.4585 16.5 2.4585 12.33 5.13558 9.75998Z" fill="#054D99" stroke="#054D99"/>
</svg>
