<svg width="29" height="29" viewBox="0 0 29 29" fill="none" xmlns="http://www.w3.org/2000/svg">
<path d="M26.4748 0H2.78958C1.65499 0 0.737549 0.917597 0.737549 2.05208V26.4157C0.737549 27.5501 1.65499 28.4733 2.78958 28.4733H26.4748C27.6094 28.4733 28.5323 27.5501 28.5323 26.4212V2.05208C28.5323 0.917597 27.6094 0 26.4748 0ZM8.98368 24.2635H4.8579V10.6719H8.98368V24.2635ZM6.92079 8.82005C5.5962 8.82005 4.52675 7.72449 4.52675 6.37312C4.52675 5.02176 5.5962 3.9262 6.92079 3.9262C8.23995 3.9262 9.30939 5.02176 9.30939 6.37312C9.30939 7.71893 8.23995 8.82005 6.92079 8.82005ZM24.4228 24.2635H20.3024V17.6568C20.3024 16.083 20.2753 14.0531 18.1581 14.0531C16.0138 14.0531 15.6881 15.7715 15.6881 17.5456V24.2635H11.5731V10.6719H15.5252V12.5294H15.5795C16.1278 11.4616 17.4741 10.3327 19.4773 10.3327C23.6519 10.3327 24.4228 13.1467 24.4228 16.8059V24.2635Z" fill="#424141"/>
</svg>
