<svg width="200" height="200" viewBox="0 0 200 200" fill="none" xmlns="http://www.w3.org/2000/svg">
    <g opacity="0.3">
        <path d="M95.4322 76.4581L76.6161 95.2742C73.9137 97.9766 73.9137 102.358 76.6161 105.061L95.4322 123.877C98.1346 126.579 102.516 126.579 105.219 123.877L124.035 105.061C126.737 102.358 126.737 97.9766 124.035 95.2742L105.219 76.4581C102.516 73.7556 98.1346 73.7556 95.4322 76.4581Z" fill="white"/>
        <path d="M100.32 173.54C95.4897 173.557 90.7041 172.615 86.2409 170.768C81.7776 168.921 77.7256 166.205 74.3201 162.78L70.3201 158.78L87.3801 141.72L91.3801 145.72C93.7448 148.084 96.9515 149.412 100.295 149.412C103.639 149.412 106.845 148.084 109.21 145.72L145.84 109.09C148.198 106.724 149.523 103.52 149.523 100.18C149.523 96.8396 148.198 93.6355 145.84 91.2699L127.55 72.9999L144.61 55.9399L162.93 74.2599C169.807 81.1532 173.669 90.4928 173.669 100.23C173.669 109.967 169.807 119.307 162.93 126.2L126.29 162.83C122.885 166.244 118.836 168.948 114.378 170.787C109.92 172.625 105.142 173.561 100.32 173.54Z" fill="white"/>
        <path d="M56 144.47L37.72 126.15C34.3088 122.74 31.6027 118.691 29.7565 114.235C27.9102 109.779 26.96 105.003 26.96 100.18C26.96 95.3567 27.9102 90.5806 29.7565 86.1246C31.6027 81.6686 34.3088 77.62 37.72 74.21L74.35 37.58C77.76 34.1687 81.8086 31.4627 86.2646 29.6165C90.7206 27.7702 95.4967 26.8199 100.32 26.8199C105.143 26.8199 109.919 27.7702 114.375 29.6165C118.831 31.4627 122.88 34.1687 126.29 37.58L130.29 41.58L113.23 58.64L109.23 54.64C106.865 52.2762 103.659 50.9483 100.315 50.9483C96.9715 50.9483 93.7647 52.2762 91.4 54.64L54.77 91.27C53.5999 92.4401 52.6717 93.8291 52.0384 95.3579C51.4051 96.8867 51.0791 98.5253 51.0791 100.18C51.0791 101.835 51.4051 103.473 52.0384 105.002C52.6717 106.531 53.5999 107.92 54.77 109.09L73.09 127.41L56 144.47Z" fill="white"/>
    </g>
</svg>
