<svg width="40" height="40" viewBox="0 0 40 40" fill="none" xmlns="http://www.w3.org/2000/svg">
    <rect width="40" height="40" rx="10" fill="#1792FF"/>
    <path d="M28.0344 25.0973L31.9697 25.1066L34.7415 22.5972L34.6 18.9024L32.2142 15.8172L28.5505 15.9337L25.5071 18.3173L25.7229 22.2114L28.0344 25.0973Z" fill="white"/>
    <path d="M6.95131 23.6881L10.8866 23.6974L13.6584 21.188L13.5169 17.4933L11.1311 14.408L7.46741 14.5245L4.42405 16.9081L4.63987 20.8022L6.95131 23.6881Z" fill="white"/>
    <path d="M17.1104 35.5719L21.0458 35.5812L23.8175 33.0718L23.676 29.3771L21.2903 26.2918L17.6265 26.4083L14.5832 28.7919L14.799 32.686L17.1104 35.5719Z" fill="white"/>
    <path d="M17.4489 13.8765L21.3843 13.8859L24.156 11.3765L24.0145 7.68175L21.6288 4.59647L17.965 4.71298L14.9217 7.09655L15.1375 10.9907L17.4489 13.8765Z" fill="white"/>
    <path d="M11.225 16.8741L17.5644 11.5594" stroke="white" stroke-width="2"/>
    <path d="M22.4513 11.9723L27.9226 18.1771" stroke="white" stroke-width="2"/>
    <path d="M21.8287 28.0377L28.0992 22.6417" stroke="white" stroke-width="2"/>
    <path d="M11.6348 21.9016L16.8631 28.3126" stroke="white" stroke-width="2"/>
</svg>
