<svg width="16" height="16" viewBox="0 0 16 16" fill="none" xmlns="http://www.w3.org/2000/svg">
<path d="M11.7736 15.1133C11.4202 15.1133 10.9669 15 10.4002 14.6667L8.40691 13.4867C8.20024 13.3667 7.80024 13.3667 7.60024 13.4867L5.60024 14.6667C4.42024 15.3667 3.72691 15.0867 3.41357 14.86C3.10691 14.6333 2.62691 14.0533 2.94024 12.72L3.41357 10.6733C3.46691 10.46 3.36024 10.0933 3.20024 9.93334L1.54691 8.28001C0.720241 7.45334 0.786908 6.74667 0.900241 6.40001C1.01357 6.05334 1.37357 5.44 2.52024 5.24667L4.64691 4.89334C4.84691 4.86 5.13357 4.64667 5.22024 4.46667L6.40024 2.11334C6.93357 1.04 7.63357 0.880005 8.00024 0.880005C8.36691 0.880005 9.06691 1.04 9.60024 2.11334L10.7736 4.46C10.8669 4.64 11.1536 4.85334 11.3536 4.88667L13.4802 5.24001C14.6336 5.43334 14.9936 6.04667 15.1002 6.39334C15.2069 6.74001 15.2736 7.44667 14.4536 8.27334L12.8002 9.93334C12.6402 10.0933 12.5402 10.4533 12.5869 10.6733L13.0602 12.72C13.3669 14.0533 12.8936 14.6333 12.5869 14.86C12.4202 14.98 12.1536 15.1133 11.7736 15.1133ZM8.00024 12.3933C8.32691 12.3933 8.65357 12.4733 8.91357 12.6267L10.9069 13.8067C11.4869 14.1533 11.8536 14.1533 11.9936 14.0533C12.1336 13.9533 12.2336 13.6 12.0869 12.9467L11.6136 10.9C11.4869 10.3467 11.6936 9.63334 12.0936 9.22667L13.7469 7.57334C14.0736 7.24667 14.2202 6.92667 14.1536 6.70667C14.0802 6.48667 13.7736 6.30667 13.3202 6.23334L11.1936 5.88C10.6802 5.79334 10.1202 5.38 9.88691 4.91334L8.71357 2.56667C8.50024 2.14 8.23357 1.88667 8.00024 1.88667C7.76691 1.88667 7.50024 2.14 7.29357 2.56667L6.11357 4.91334C5.88024 5.38 5.32024 5.79334 4.80691 5.88L2.68691 6.23334C2.23357 6.30667 1.92691 6.48667 1.85357 6.70667C1.78024 6.92667 1.93357 7.25334 2.26024 7.57334L3.91357 9.22667C4.31357 9.62667 4.52024 10.3467 4.39357 10.9L3.92024 12.9467C3.76691 13.6067 3.87357 13.9533 4.01357 14.0533C4.15357 14.1533 4.51357 14.1467 5.10024 13.8067L7.09358 12.6267C7.34691 12.4733 7.67357 12.3933 8.00024 12.3933Z" fill="#003066"/>
</svg>
