<svg width="32" height="26" viewBox="0 0 32 26" fill="none" xmlns="http://www.w3.org/2000/svg">
<path d="M10.0399 25.4737C21.691 25.4737 28.0655 15.7353 28.0655 7.29279C28.0655 7.01902 28.0595 6.73916 28.0474 6.46539C29.2874 5.5609 30.3575 4.44056 31.2075 3.15701C30.0526 3.67526 28.8265 4.01372 27.5709 4.16084C28.8929 3.36157 29.8828 2.10596 30.357 0.626756C29.1133 1.37017 27.7532 1.89458 26.335 2.17752C25.3794 1.15343 24.1159 0.475357 22.74 0.248144C21.364 0.0209298 19.9522 0.257228 18.7227 0.920505C17.4932 1.58378 16.5146 2.63709 15.9382 3.91759C15.3618 5.19809 15.2196 6.63445 15.5337 8.0046C13.0154 7.87714 10.5518 7.21731 8.30255 6.0679C6.0533 4.91849 4.06863 3.30515 2.47723 1.33248C1.66839 2.73903 1.42088 4.40343 1.78501 5.98742C2.14914 7.57141 3.09758 8.95614 4.43757 9.86016C3.43159 9.82795 2.44764 9.55476 1.56702 9.06318V9.14227C1.56612 10.6183 2.07205 12.0492 2.99882 13.1915C3.92558 14.3339 5.21598 15.1173 6.65066 15.4086C5.71877 15.6658 4.74071 15.7032 3.79217 15.5181C4.19701 16.7875 4.98468 17.8978 6.04525 18.694C7.10582 19.4902 8.38637 19.9325 9.7082 19.9593C7.46413 21.7372 4.69206 22.7016 1.83845 22.697C1.33239 22.6962 0.826825 22.6649 0.324463 22.6033C3.22342 24.4792 6.59569 25.4755 10.0399 25.4737Z" fill="#424141"/>
</svg>
