<svg width="33" height="35" viewBox="0 0 33 35" fill="none" xmlns="http://www.w3.org/2000/svg">
    <path d="M27.4233 11.5593C27.4407 11.8184 27.4407 12.0775 27.4407 12.3366C27.4407 20.239 21.7698 29.3444 11.4049 29.3444C8.21162 29.3444 5.24526 28.3635 2.75 26.6609C3.2037 26.7164 3.63989 26.7349 4.11104 26.7349C6.74584 26.7349 9.17133 25.7911 11.1082 24.181C8.6304 24.1254 6.55393 22.4043 5.8385 20.0354C6.18751 20.0909 6.53647 20.1279 6.90295 20.1279C7.40896 20.1279 7.91503 20.0539 8.38613 19.9244C5.80364 19.3692 3.86671 16.9633 3.86671 14.0577V13.9837C4.617 14.4279 5.48954 14.7055 6.41428 14.7425C4.89619 13.669 3.90162 11.8369 3.90162 9.76411C3.90162 8.65372 4.18076 7.63585 4.66937 6.74751C7.44382 10.3748 11.6142 12.7437 16.2906 13.0028C16.2034 12.5587 16.151 12.096 16.151 11.6333C16.151 8.3391 18.6637 5.65564 21.7871 5.65564C23.4099 5.65564 24.8756 6.3774 25.9051 7.54333C27.1789 7.28425 28.4004 6.78454 29.4823 6.09981C29.0634 7.48785 28.1735 8.65378 27.0045 9.394C28.1387 9.26452 29.238 8.93132 30.25 8.4687C29.4824 9.65308 28.5226 10.7079 27.4233 11.5593Z" fill="#37324A"/>
</svg>
