<svg width="40" height="29" viewBox="0 0 40 29" fill="none" xmlns="http://www.w3.org/2000/svg">
<path d="M39.6032 6.19438C39.6032 6.19438 39.2141 3.3802 38.0157 2.14451C36.4982 0.518191 34.8017 0.510219 34.0235 0.414553C28.4515 -2.28086e-07 20.0858 0 20.0858 0H20.0703C20.0703 0 11.7046 -2.28086e-07 6.13262 0.414553C5.35441 0.510219 3.65793 0.518191 2.14043 2.14451C0.941992 3.3802 0.560672 6.19438 0.560672 6.19438C0.560672 6.19438 0.156006 9.50283 0.156006 12.8033V15.8965C0.156006 19.197 0.55289 22.5054 0.55289 22.5054C0.55289 22.5054 0.941992 25.3196 2.13265 26.5553C3.65014 28.1816 5.64235 28.1258 6.5295 28.3012C9.72014 28.6121 20.078 28.7078 20.078 28.7078C20.078 28.7078 28.4515 28.6918 34.0235 28.2853C34.8017 28.1896 36.4982 28.1816 38.0157 26.5553C39.2141 25.3196 39.6032 22.5054 39.6032 22.5054C39.6032 22.5054 40.0001 19.205 40.0001 15.8965V12.8033C40.0001 9.50283 39.6032 6.19438 39.6032 6.19438ZM15.9613 19.6514V8.17945L26.7239 13.9354L15.9613 19.6514Z" fill="#424141"/>
</svg>
