<svg width="34" height="33" viewBox="0 0 34 33" fill="none" xmlns="http://www.w3.org/2000/svg">
    <path d="M30.5747 9.85745C30.2488 8.66658 29.2887 7.72868 28.0697 7.4104C25.8601 6.83203 17 6.83203 17 6.83203C17 6.83203 8.14001 6.83203 5.93039 7.4104C4.71137 7.72873 3.75128 8.66658 3.42543 9.85745C2.83337 12.016 2.83337 16.5195 2.83337 16.5195C2.83337 16.5195 2.83337 21.0231 3.42543 23.1816C3.75128 24.3725 4.71137 25.2713 5.93039 25.5896C8.14001 26.1679 17 26.1679 17 26.1679C17 26.1679 25.8601 26.1679 28.0697 25.5896C29.2887 25.2713 30.2488 24.3725 30.5747 23.1816C31.1667 21.0231 31.1667 16.5195 31.1667 16.5195C31.1667 16.5195 31.1667 12.016 30.5747 9.85745ZM14.1023 20.6084V12.4306L21.5076 16.5196L14.1023 20.6084Z" fill="#37324A"/>
</svg>
