<svg width="40" height="40" viewBox="0 0 40 40" fill="none" xmlns="http://www.w3.org/2000/svg">
    <rect width="40" height="40" rx="10" fill="#0B9B83"/>
    <path d="M22.0521 21.9375H19.4583C19.1458 21.9375 18.8958 22.1875 18.8958 22.5C18.8958 22.8125 19.1458 23.0625 19.4583 23.0625H22.0521C22.3646 23.0625 22.6146 22.8125 22.6146 22.5C22.6146 22.1875 22.3646 21.9375 22.0521 21.9375Z" fill="white"/>
    <path d="M17.8333 21.9375H16.5312C16.2187 21.9375 15.9688 22.1875 15.9688 22.5C15.9688 22.8125 16.2187 23.0625 16.5312 23.0625H17.8333C18.1458 23.0625 18.3958 22.8125 18.3958 22.5C18.3958 22.1875 18.1458 21.9375 17.8333 21.9375Z" fill="white"/>
    <path d="M27.3125 12.3958L21.5834 10.25C20.9896 10.0313 20.0209 10.0313 19.4271 10.25L13.6979 12.3958C12.5938 12.8125 11.6979 14.1042 11.6979 15.2812V23.7187C11.6979 24.5625 12.25 25.6771 12.9271 26.1771L18.6563 30.4583C19.6667 31.2187 21.3229 31.2187 22.3334 30.4583L28.0625 26.1771C28.7396 25.6667 29.2917 24.5625 29.2917 23.7187V15.2812C29.3021 14.1042 28.4063 12.8125 27.3125 12.3958ZM26.9271 22.2187C26.9063 24.375 26.3125 24.9167 24.0729 24.9167H16.9375C14.6563 24.9167 14.0834 24.3542 14.0834 22.0937V19.6667C14.0834 19.375 14.3125 19.1458 14.6042 19.1458H26.4063C26.6979 19.1458 26.9271 19.375 26.9271 19.6667V22.2187ZM26.9271 17.4896C26.9271 17.7812 26.6979 18.0104 26.4063 18.0104H14.6042C14.3125 18.0104 14.0834 17.7812 14.0834 17.4896V16.8229C14.0834 14.7812 14.5625 14.125 16.3438 14.0104C16.5313 14.0104 16.7292 14 16.9375 14H24.0729C26.3542 14 26.9271 14.5625 26.9271 16.8229V17.4896Z" fill="white"/>
</svg>
